HIERARCHY
ROOT Hips
{
  OFFSET -33.9132 29.2015 117.021
  CHANNELS 6 Xposition Yposition Zposition Zrotation Xrotation Yrotation
  JOINT LeftUpLeg
  {
    OFFSET 8.64259 1.95398 -2.38835
    CHANNELS 3 Zrotation Xrotation Yrotation
    JOINT LeftLeg
    {
      OFFSET 43.7702 0 0
      CHANNELS 3 Zrotation Xrotation Yrotation
      JOINT LeftFoot
      {
        OFFSET 40.6238 0 0
        CHANNELS 3 Zrotation Xrotation Yrotation
        JOINT LeftToeBase
        {
          OFFSET 12.7242 0 0
          CHANNELS 3 Zrotation Xrotation Yrotation
          End Site
          {
            OFFSET 0 0 0
          }
        }
      }
    }
  }
  JOINT RightUpLeg
  {
    OFFSET -8.2249 1.95398 -2.59336
    CHANNELS 3 Zrotation Xrotation Yrotation
    JOINT RightLeg
    {
      OFFSET 43.5653 0 0
      CHANNELS 3 Zrotation Xrotation Yrotation
      JOINT RightFoot
      {
        OFFSET 40.6238 0 0
        CHANNELS 3 Zrotation Xrotation Yrotation
        JOINT RightToeBase
        {
          OFFSET 12.7242 0 0
          CHANNELS 3 Zrotation Xrotation Yrotation
          End Site
          {
            OFFSET 0 0 0
          }
        }
      }
    }
  }
  JOINT Spine
  {
    OFFSET 0.165834 0.87714 6.61349
    CHANNELS 3 Zrotation Xrotation Yrotation
    JOINT Spine1
    {
      OFFSET 7.38963 1.71661e-005 0
      CHANNELS 3 Zrotation Xrotation Yrotation
      JOINT Spine2
      {
        OFFSET 11.9445 1.14441e-005 0
        CHANNELS 3 Zrotation Xrotation Yrotation
        JOINT Spine3
        {
          OFFSET 14.7254 4.19617e-005 0
          CHANNELS 3 Zrotation Xrotation Yrotation
          JOINT Spine4
          {
            OFFSET 10.9679 0 0
            CHANNELS 3 Zrotation Xrotation Yrotation
            JOINT RightShoulder
            {
              OFFSET 2.46616 -1.6653 3.69651
              CHANNELS 3 Zrotation Xrotation Yrotation
              JOINT RightArm
              {
                OFFSET 13.0012 0 0
                CHANNELS 3 Zrotation Xrotation Yrotation
                JOINT RightForeArm
                {
                  OFFSET 28.7848 1.62311e-005 0
                  CHANNELS 3 Zrotation Xrotation Yrotation
                  JOINT RightHand
                  {
                    OFFSET 26.5688 1.62095e-005 0
                    CHANNELS 3 Zrotation Xrotation Yrotation
                    End Site
                    {
                      OFFSET 0 0 0
                    }
                  }
                }
              }
            }
            JOINT LeftShoulder
            {
              OFFSET 2.38034 -1.29275 -3.7523
              CHANNELS 3 Zrotation Xrotation Yrotation
              JOINT LeftArm
              {
                OFFSET 16.3182 6.07031e-005 0
                CHANNELS 3 Zrotation Xrotation Yrotation
                JOINT LeftForeArm
                {
                  OFFSET 27.0901 0 0
                  CHANNELS 3 Zrotation Xrotation Yrotation
                  JOINT LeftHand
                  {
                    OFFSET 24.5451 1.51738e-005 0
                    CHANNELS 3 Zrotation Xrotation Yrotation
                    End Site
                    {
                      OFFSET 0 0 0
                    }
                  }
                }
              }
            }
            JOINT Neck
            {
              OFFSET 5.0226 -0.0266342 0
              CHANNELS 3 Zrotation Xrotation Yrotation
              JOINT Head
              {
                OFFSET 6.69364 2.86102e-005 0
                CHANNELS 3 Zrotation Xrotation Yrotation
                End Site
                {
                  OFFSET 0 0 0
                }
              }
            }
          }
        }
      }
    }
  }
}
MOTION
Frames:	17
Frame Time:	0.0416667
244.303 93.0381 248.883 -70.5135 41.8208 -104.613 -169.653 53.1559 82.4432 -49.4218 6.6447 -4.46256 80.2076 12.0832 -2.27839 28.7569 -0.589985 1.38193 -170.381 -8.87445 108.387 -20.4292 -16.0938 -31.257 -19.897 3.47077 64.0536 49.784 -9.758 20.0797 2.12195 7.67027 -89.4193 11.5263 4.49321 0.696537 -0.136918 4.51947 0.497696 -22.7242 4.07581 2.01679 -2.71157 4.07584 2.0168 95.31 -14.6419 -100.642 32.3526 1.08422 7.09257 -44.1148 -9.1905 -82.3154 -30.1389 7.70202 -33.8524 -87.9966 -35.1486 78.5482 -29.1448 37.2878 35.7401 72.0439 27.5899 -66.3411 68.1798 -12.594 -14.8547 32.0147 -11.421 -6.43373 -7.46981 -8.34106 3.28514 
237.074 93.6211 241.902 -75.6367 42.3806 -99.9922 -170.76 42.7339 85.1051 -45.4389 9.62684 -4.24304 79.2883 11.8857 -1.9251 24.9436 -3.3112 3.29536 -173.059 -3.72661 107.786 -41.207 -17.258 -27.5116 -15.3114 21.4872 57.7662 44.8034 -8.81228 23.7637 1.84099 7.95827 -89.4946 10.9516 3.89922 0.637546 -0.713523 3.92347 0.465047 -23.2881 3.52713 1.7813 -3.27548 3.52712 1.7813 92.6346 -20.4317 -104.948 36.7233 -2.15988 13.6249 -43.8459 -12.8899 -78.1151 -28.4001 7.35363 -34.2926 -88.6775 -42.7374 79.2056 -14.8219 29.9365 15.1392 70.5503 36.3748 -70.5295 71.7857 -11.6688 -12.1858 29.5587 -10.6525 -8.454 -6.74114 -6.92915 2.50988 
229.819 93.1681 235.674 -80.7028 37.9834 -100.264 -172.987 32.7301 81.2622 -43.1013 9.54124 -3.6177 76.5245 11.1068 -0.381967 25.7392 -1.45989 0.386538 177.217 9.7016 94.4969 -66.4864 -18.269 -10.3982 1.8224 30.5875 32.9649 49.6128 -9.91214 23.8914 0.84478 8.2423 -89.0546 10.368 2.11567 1.69446 -1.30261 2.18819 1.59972 -23.8327 1.50882 2.25173 -3.82001 1.50883 2.25173 91.4769 -25.056 -105.638 41.7518 -2.30868 16.1718 -50.1695 -24.4071 -71.5105 -26.4073 6.47516 -32.979 -90.3058 -47.7829 77.7779 -10.2694 25.2941 0.608851 68.9635 44.6214 -72.686 75.9415 -11.2725 -9.96784 26.5768 -9.65379 -11.126 -6.95935 -5.24253 2.41323 
223.396 92.4028 229.154 -79.6186 38.8631 -100.691 -171.1 27.4278 82.5669 -45.9968 4.04176 -3.71147 88.0009 16.0312 -6.98027 19.7666 -3.3179 -1.66108 177.539 21.7021 88.5692 -79.8775 -10.3984 -3.89017 20.0204 24.4724 10.2932 75.4283 -11.2229 41.265 0.443359 7.96123 -88.886 10.9344 1.39802 2.08242 -0.737362 1.48829 2.01889 -23.2616 0.70771 2.40613 -3.24891 0.707732 2.40613 91.4544 -27.7138 -104.677 46.119 0.939715 15.7547 -54.8275 -43.5362 -63.752 -29.2421 6.2579 -29.3808 -91.3444 -49.7686 76.6678 -7.24012 18.8739 -16.2104 67.843 46.546 -73.3058 54.4834 -16.4255 -28.5914 22.5106 -7.37849 -12.8544 -6.20616 -2.84734 1.32937 
217.857 91.0916 223.29 -79.6275 39.1043 -101.743 -170.287 21.7004 83.1777 -46.5064 5.70248 -3.84565 89.8301 18.3879 -5.36476 33.7915 4.43795 -6.32064 177.768 31.9982 91.0113 -92.4646 -4.61966 -4.37536 50.5669 6.24188 -6.42472 69.9134 -13.0251 29.6563 -0.137536 8.01096 -88.7465 10.842 0.305198 2.46458 -0.831184 0.413327 2.44877 -23.3479 -0.449402 2.44242 -3.33529 -0.44939 2.44242 93.0311 -26.9273 -101.651 48.7267 4.9419 15.6005 -41.0291 -54.9698 -45.7852 -32.3742 6.16453 -26.6233 -91.4075 -48.3014 76.2178 -5.0796 13.5557 -38.1264 72.8168 48.9212 -78.198 41.5241 -16.247 -38.2033 22.1359 -4.55102 -12.1713 -4.86519 -0.325657 -1.07145 
211.353 89.627 216.905 -82.0739 37.2108 -98.5768 -170.858 13.1058 87.4127 -45.1619 6.987 -2.67885 97.9039 22.5235 -8.32321 32.9667 2.52612 -1.76603 177.665 36.9714 92.1521 -95.3559 -6.80982 -4.00626 70.7419 -9.37971 -10.4198 35.7582 -5.47869 13.8251 -1.09311 7.94585 -88.7903 10.9972 -1.61607 2.54164 -0.675261 -1.50271 2.61023 -23.2042 -2.30489 1.93882 -3.1915 -2.3049 1.93882 93.882 -26.9977 -99.6897 39.495 9.32081 29.7292 -101.63 -56.3604 -99.3231 -17.5918 3.91855 -27.4049 -90.9822 -42.5973 75.4901 -6.01995 7.55601 -49.9723 70.2309 48.9203 -76.8225 56.5257 -16.1011 -25.851 18.4302 -1.22603 -13.7242 -4.33951 2.76838 -0.166987 
204.04 89.7619 209.957 -82.6989 36.8381 -94.2954 -169.967 1.1792 89.0615 -38.3529 10.3221 -1.35498 95.7973 23.046 -5.6294 38.8907 4.2778 0.31896 176.703 44.9942 95.5781 -90.2126 -2.50877 -3.14592 76.2595 -12.2013 -6.70075 19.1514 0.742718 10.7945 -2.24901 7.73077 -88.8053 11.5394 -3.91684 2.70943 -0.127675 -3.79372 2.87925 -22.7116 -4.55023 1.4053 -2.69898 -4.55021 1.4053 91.5987 -29.6579 -103.56 36.3013 14.8233 25.0205 -13.311 -63.025 -13.5916 -31.2111 8.56135 -35.8679 -87.0452 -31.7153 79.4374 -7.39118 0.306858 -53.3093 64.5666 46.6329 -71.7134 66.4877 -13.6083 -16.8587 16.7578 3.76365 -16.8809 -6.87287 8.20928 0.706942 
195.952 91.4996 202.249 -83.4244 38.0146 -90.7014 -168.979 -6.69934 97.1551 -28.0125 15.4641 -0.0859674 79.3182 15.9932 3.15165 54.4951 10.9436 -1.16412 176.144 49.277 98.4972 -78.4203 0.913318 -2.01 75.2699 -10.3743 -5.43978 18.7531 1.17991 10.1488 -2.52691 8.02132 -90.0258 10.8396 -5.04315 0.428442 -0.821815 -5.01939 0.650534 -23.4323 -4.93813 -1.11083 -3.41962 -4.93813 -1.11085 96.4233 -16.6304 -97.0648 32.3799 15.3668 37.9779 -65.7259 -63.9606 -67.2017 -21.4663 5.60936 -35.143 -86.9858 -28.2711 78.6287 -9.13205 -5.5742 -61.8049 57.9088 47.8599 -67.7123 67.931 -15.3029 -18.94 19.4545 8.05918 -4.78798 -6.77919 9.40474 -3.17253 
187.265 93.4502 194.111 -83.6333 39.6208 -87.917 -168.782 -14.8668 98.8553 -20.1338 17.721 1.48019 59.4339 1.9212 4.11476 63.1619 14.1773 -0.176022 177 49.3499 99.7436 -61.99 0.0540163 -0.558419 71.9979 -7.2608 -4.08596 19.659 1.01801 9.62653 -3.0413 7.9813 -90.4228 10.9173 -6.25058 -0.250726 -0.738521 -6.25552 0.0256917 -23.3843 -5.88522 -2.12423 -3.37163 -5.88524 -2.12425 95.2315 -15.3481 -100.574 29.3236 16.5542 42.6867 -37.321 -58.75 -40.6886 -28.8441 7.71701 -35.2254 -84.1468 -19.9311 82.3732 -10.8885 -5.51101 -57.8669 53.4867 43.9549 -64.2848 70.3612 -16.4926 -19.8414 22.805 11.3534 -5.03202 -12.7538 12.6886 -0.608877 
178.224 94.7237 185.619 -83.3151 42.4755 -85.9194 -169.926 -18.125 98.4739 -21.8846 14.1572 3.67428 50.5184 -5.94716 2.32092 27.8405 3.50468 -10.1276 179.302 46.1028 100.476 -43.8826 -8.37048 0.300733 70.6033 -6.99387 -2.80951 20.5032 1.53585 7.0451 -3.05802 7.95806 -90.9225 10.9341 -6.51486 -1.21866 -0.720771 -6.56217 -0.929542 -23.3623 -5.84657 -3.1263 -3.34966 -5.84658 -3.12631 95.0804 -13.4225 -101.75 24.5788 17.4305 49.0547 -40.6023 -56.3363 -44.8752 -25.4281 7.90402 -39.8406 -83.5322 -15.9066 82.758 -11.6259 -6.05448 -54.9148 56.556 44.9902 -65.7395 69.3135 -17.1017 -21.0071 23.2254 14.0521 -1.50404 -14.6897 14.0466 0.268317 
170.083 94.5347 177.59 -83.1351 44.3691 -86.0399 -170.084 -18.4602 97.0833 -30.3773 19.3493 2.89942 52.5872 -4.61091 4.22819 19.1273 -1.51856 -5.63607 -179.368 43.2755 100.303 -31.4604 -17.6732 0.585308 69.4554 -7.18248 -4.0739 22.5356 0.50381 7.79523 -2.9691 7.91309 -91.0987 11.0128 -6.41954 -1.57275 -0.642866 -6.48251 -1.28759 -23.2745 -5.64945 -3.43449 -3.26188 -5.64945 -3.43448 94.8128 -14.2712 -102.112 22.5671 17.848 50.3899 -40.3758 -56.4599 -44.6097 -28.6246 8.92984 -39.5737 -83.1982 -15.0183 83.3375 -8.39197 -0.915571 -52.4965 56.4198 44.4302 -65.3083 66.8157 -16.331 -21.0609 22.3977 15.2887 0.196753 -13.286 14.5887 1.30417 
162.712 93.3794 169.85 -85.998 45.4011 -86.0092 -169.649 -16.5621 95.1592 -44.865 19.3541 1.42722 53.6728 -3.86604 2.58602 29.6171 3.87994 -9.0016 179.679 39.3065 99.9703 -28.5653 -12.0745 1.20659 70.9543 -8.29075 -3.24365 20.1089 0.888143 9.54911 -2.78929 7.96268 -90.9028 10.9259 -5.97075 -1.2313 -0.731682 -6.01913 -0.966418 -23.3543 -5.32403 -2.97329 -3.34171 -5.32405 -2.9733 94.6038 -17.2718 -101.458 23.7286 17.6222 49.459 -39.3207 -53.6034 -44.5093 -27.9326 7.86107 -36.7815 -84.3868 -19.8626 81.8073 -4.46529 4.94791 -48.3799 56.0022 45.3737 -64.7622 65.6639 -14.8316 -19.3356 20.3125 15.2761 2.03556 -11.9964 14.1169 0.528068 
155.352 92.5564 162.164 -90.6879 46.05 -83.706 -167.264 -11.5687 95.5475 -61.4597 14.1408 0.325973 52.4242 -4.8145 4.31353 27.3553 3.39653 -9.66755 177.364 34.4988 99.8718 -32.3931 -10.0099 2.50894 67.101 -4.65628 -3.2402 26.4097 -0.162907 4.66784 -2.51525 8.11729 -90.7494 10.6229 -5.35401 -1.00484 -1.03724 -5.39306 -0.767565 -23.6441 -4.80402 -2.57082 -3.63145 -4.80403 -2.57081 93.4535 -19.6782 -103.309 28.9304 16.6065 41.42 -25.5071 -51.4923 -29.9803 -33.327 8.77234 -34.4749 -86.1989 -27.3369 79.9336 -1.97042 9.05609 -42.0233 56.7466 45.8871 -65.636 62.311 -14.5108 -20.307 16.6954 14.8417 4.21829 -9.60941 13.2531 -0.114851 
148.335 91.6512 154.444 -92.9156 45.3992 -80.9989 -164.697 -2.64329 98.6669 -76.8604 4.11842 1.25641 56.2694 -1.82686 6.24779 26.7352 2.3288 -7.61138 173.538 33.264 101.054 -42.711 -13.272 4.94247 65.4267 -3.03352 -5.27902 9.20454 5.95612 7.66273 -2.19074 8.19 -90.9919 10.4674 -4.81892 -1.54428 -1.19523 -4.88219 -1.33025 -23.7793 -4.13184 -2.92293 -3.76671 -4.13183 -2.92292 93.0881 -24.0128 -102.5 30.8169 15.4824 38.9547 -29.3474 -41.8269 -38.7232 -31.1235 8.15717 -34.4573 -87.3357 -35.0071 79.7017 -1.74185 12.4287 -35.7949 53.1963 46.3045 -63.0766 60.5024 -13.9517 -20.3544 13.702 13.6552 6.32229 -7.18759 11.6805 0.518003 
142.189 90.4882 147.325 -94.616 45.8897 -75.8827 -164.759 11.0215 100.981 -90.6515 -3.07118 3.29733 61.9939 2.17466 7.18016 26.8737 2.80125 -8.62456 171.215 29.0913 106.004 -51.303 -13.1908 5.54813 71.8091 -9.35937 -7.42318 18.8496 1.58546 8.78402 -1.56615 8.35879 -91.6181 10.1006 -3.85756 -2.89233 -1.56745 -3.98108 -2.71968 -24.1042 -2.81064 -3.91743 -4.09159 -2.81063 -3.91742 93.8916 -25.2455 -100.359 35.4209 12.3471 30.5521 -30.914 -35.0799 -44.829 -32.738 7.60886 -31.2647 -89.1858 -42.5541 78.3317 -1.7807 14.0281 -26.9028 61.4999 52.288 -68.3134 58.285 -13.725 -20.7448 13.338 12.4408 8.52791 -6.1289 9.95248 0.737218 
136.093 89.5147 140.47 -96.794 47.0754 -71.303 -168.717 23.6904 102.797 -98.6781 0.288616 4.33229 65.6892 5.42714 11.2954 22.9393 1.67704 -9.29443 171.911 22.1913 108.771 -54.5102 -12.8528 5.49286 77.5022 -14.6294 -8.05619 21.3682 0.697266 8.62897 -0.851113 8.58525 -91.9052 9.64903 -2.5572 -3.57889 -2.02404 -2.71212 -3.46301 -24.5267 -1.36449 -4.18099 -4.51406 -1.36447 -4.18099 93.4326 -28.0896 -100.441 37.3879 8.41356 18.6586 -29.5959 -29.4509 -47.7159 -37.0305 7.75088 -28.4471 -89.5656 -43.306 77.8878 -6.21089 15.6692 -13.6701 68.2511 51.7611 -72.6734 55.8232 -12.3657 -19.5162 15.0213 10.6179 6.87383 -7.03326 8.45368 1.0305 
129.335 88.6279 133.387 -97.3439 47.6905 -72.0953 -173.103 34.1144 100.406 -98.9361 1.47758 4.44597 70.6822 8.92918 10.9464 22.6065 1.23949 -8.60717 173.004 15.1044 107.098 -56.5475 -11.7547 4.55314 84.011 -19.5513 -7.1735 25.2034 -0.38085 7.27286 -0.404667 8.49693 -91.7817 9.84331 -1.61424 -3.40542 -1.83091 -1.76247 -3.33118 -24.3317 -0.516951 -3.73265 -4.31901 -0.516959 -3.73266 93.4552 -25.9947 -101.049 39.3387 2.91459 11.3361 -30.6186 -23.1279 -55.3995 -37.0059 7.55791 -27.8971 -88.2808 -43.0222 79.9053 -11.2999 19.0245 1.4551 64.0103 47.9698 -68.8914 56.6029 -13.8094 -21.794 14.3782 8.62493 6.04459 -7.1653 6.75745 1.3411 
